<html>
<head>
<meta charset="UTF-8">
<meta name="viewport" content="width=device-width, initial-scale=1.0"/>

<style>
.comment
{
    padding-left: 20px;
    margin-top: 4px;
    margin-right: 4px;
    margin-bottom: 4px;
    border: 2px #000 solid;
}
.submission
{
    border: 4px #00f solid;
    padding-left: 20px;
}
.hidden
{
    display: none;
}
</style>
</head>
<body><div class="submission" id="t3_5xsmfn">
    <p class="userinfo">
        <a href="https://www.reddit.com/u/jodorowsthesky">jodorowsthesky</a>
        <span class="score"> | 36 points</span>
        <span class="timestamp"> | Mar 06 2017 10:53:12</span>
    </p>
    <strong>[MOVIE] Kids (1995) [1080p][x264][1.74GB]</strong>
    <p><p>.nz/#!sFxWEbjK!mN4RyncRK5l51kwxyBWI_xdoZecRIokjgkstjnvPqmM  </p>
<pre><code>Format                                   : MPEG-4
Format profile                           : Base Media
Codec ID                                 : isom (isom/iso2/avc1/mp41)
File size                                : 1.75 GiB
Duration                                 : 1 h 31 min
Overall bit rate                         : 2 731 kb/s
Movie name                               : Kids.1995.1080p.BluRay.H264.AAC-RARBG
Encoded date                             : UTC 2017-03-05 10:12:25
Tagged date                              : UTC 2017-03-05 10:12:25
Writing application                      : Lavf56.40.101
Comment                                  : Kids.1995.1080p.BluRay.H264.AAC-RARBG

Video
ID                                       : 1
Format                                   : AVC
Format/Info                              : Advanced Video Codec
Format profile                           : High@L4.1
Format settings, CABAC                   : Yes
Format settings, ReFrames                : 4 frames
Codec ID                                 : avc1
Codec ID/Info                            : Advanced Video Coding
Duration                                 : 1 h 31 min
Bit rate                                 : 2 500 kb/s
Width                                    : 1 920 pixels
Height                                   : 1 040 pixels
Display aspect ratio                     : 1.85:1
Frame rate mode                          : Constant
Frame rate                               : 24.000 FPS
Color space                              : YUV
Chroma subsampling                       : 4:2:0
Bit depth                                : 8 bits
Scan type                                : Progressive
Bits/(Pixel*Frame)                       : 0.052
Stream size                              : 1.60 GiB (92%)
Writing library                          : x264 core 148 r2638M 7599210
Encoding settings                        : cabac=1 / ref=4 / deblock=1:-1:-1 / analyse=0x3:0x113 / me=umh / subme=9 / psy=1 / psy_rd=1.00:0.15 / mixed_ref=1 / me_range=24 / chroma_me=1 / trellis=2 / 8x8dct=1 / cqm=0 / deadzone=21,11 / fast_pskip=1 / chroma_qp_offset=-3 / threads=32 / lookahead_threads=4 / sliced_threads=0 / nr=0 / decimate=1 / interlaced=0 / bluray_compat=0 / constrained_intra=0 / bframes=3 / b_pyramid=2 / b_adapt=2 / b_bias=0 / direct=3 / weightb=1 / open_gop=0 / weightp=2 / keyint=250 / keyint_min=25 / scenecut=40 / intra_refresh=0 / rc_lookahead=50 / rc=2pass / mbtree=1 / bitrate=2500 / ratetol=1.0 / qcomp=0.60 / qpmin=0 / qpmax=69 / qpstep=4 / cplxblur=20.0 / qblur=0.5 / vbv_maxrate=31250 / vbv_bufsize=31250 / nal_hrd=none / filler=0 / ip_ratio=1.40 / aq=3:1.00
Encoded date                             : UTC 2017-03-05 10:12:25
Tagged date                              : UTC 2017-03-05 10:12:25

Audio
ID                                       : 2
Format                                   : AAC
Format/Info                              : Advanced Audio Codec
Format profile                           : LC
Codec ID                                 : 40
Duration                                 : 1 h 31 min
Bit rate mode                            : Constant
Bit rate                                 : 224 kb/s
Channel(s)                               : 2 channels
Channel(s)_Original                      : 6 channels
Channel positions                        : Front: L C R, Side: L R, LFE
Sampling rate                            : 48.0 kHz
Frame rate                               : 46.875 FPS (1024 spf)
Compression mode                         : Lossy
Stream size                              : 147 MiB (8%)
Language                                 : English
Default                                  : Yes
Alternate group                          : 1
Encoded date                             : UTC 2017-03-05 10:12:25
Tagged date                              : UTC 2017-03-05 10:12:25
</code></pre></p>
    <p class="toolbar">
        <a href="https://www.reddit.com/r/megalinks/comments/5xsmfn">permalink</a>
    </p>
</div>
<div class="comment" id="t1_dekj9bz">
    <p class="userinfo">
        <a
        class="toggle_hide_button"
        href="javascript:void(0)"
        onclick="toggle_collapse(this.parentElement.parentElement)">[-]
        </a>
        <a href="https://www.reddit.com/u/boltrop">boltrop</a>
        <span class="score"> | 2 points</span>
        <span class="timestamp"> | Mar 06 2017 10:54:05</span>
    </p>
    <div class="collapsible">
        <h3><a href="https://images-na.ssl-images-amazon.com/images/M/MV5BNTNmN2QyNTgtMTk0ZC00NmFhLWJlNzctZmMyYTczZTYyMzA1XkEyXkFqcGdeQXVyMTQxNzMzNDI@._V1_.jpg">Kids</a> (1995)</h3>
<p><strong>Genre</strong>: Drama</p>
<p><strong>Rating</strong>:  7 (61193 votes)</p>
<p><strong>Certification</strong>: Unrated</p>
<p><strong>Runtime</strong>: 91 min</p>
<hr>
<blockquote>
<p><strong>Director(s)</strong>: <a href="https://www.imdb.com/name/nm0164187/">Larry Clark</a></p>
<p><strong>Writer(s)</strong>: <a href="https://www.imdb.com/name/nm0005101/">Harmony Korine</a></p>
<p><strong>Cast</strong>: <a href="https://www.imdb.com/name/nm0280559/">Leo Fitzpatrick</a>, <a href="https://www.imdb.com/name/nm0682399/">Justin Pierce</a>, <a href="https://www.imdb.com/name/nm0001721/">Chloë Sevigny</a>, <a href="https://www.imdb.com/name/nm1344991/">Sarah Henderson</a></p>
<p><strong>Plot</strong>: A day in the life of a group of teens as they travel around New York City skating, drinking, smoking, and deflowering virgins.</p>
</blockquote>
<hr>
<p>^This ^summary ^is ^taken ^from <a href="https://www.imdb.com/title/tt0113540/">^imdb.com</a> ^| ^For ^feedback ^or ^suggestions ^contact <a href="http://www.reddit.com/message/compose/?to=indigo6alpha">^/u/indigo6alpha</a></p>
        <p class="toolbar">
            <a href="https://www.reddit.com/r/megalinks/comments/5xsmfn/_/dekj9bz">permalink</a>
        </p>
        
    </div>
</div>

<div class="comment" id="t1_dekr0gt">
    <p class="userinfo">
        <a
        class="toggle_hide_button"
        href="javascript:void(0)"
        onclick="toggle_collapse(this.parentElement.parentElement)">[-]
        </a>
        <a href="https://www.reddit.com/u/Imonfire1">Imonfire1</a>
        <span class="score"> | 1 points</span>
        <span class="timestamp"> | Mar 06 2017 15:16:35</span>
    </p>
    <div class="collapsible">
        <p>Thanks ! I was considering rewatching it recently</p>
        <p class="toolbar">
            <a href="https://www.reddit.com/r/megalinks/comments/5xsmfn/_/dekr0gt">permalink</a>
        </p>
        
    </div>
</div>

<div class="comment" id="t1_delcpow">
    <p class="userinfo">
        <a
        class="toggle_hide_button"
        href="javascript:void(0)"
        onclick="toggle_collapse(this.parentElement.parentElement)">[-]
        </a>
        <a href="https://www.reddit.com/u/morningscribbles">morningscribbles</a>
        <span class="score"> | 1 points</span>
        <span class="timestamp"> | Mar 06 2017 22:19:42</span>
    </p>
    <div class="collapsible">
        <p>holy crap, when was this released on blu-ray?!</p>
        <p class="toolbar">
            <a href="https://www.reddit.com/r/megalinks/comments/5xsmfn/_/delcpow">permalink</a>
        </p>
        
    </div>
</div>

<div class="comment" id="t1_depa7oa">
    <p class="userinfo">
        <a
        class="toggle_hide_button"
        href="javascript:void(0)"
        onclick="toggle_collapse(this.parentElement.parentElement)">[-]
        </a>
        <a href="https://www.reddit.com/u/hickay69">hickay69</a>
        <span class="score"> | 1 points</span>
        <span class="timestamp"> | Mar 09 2017 09:30:58</span>
    </p>
    <div class="collapsible">
        <p>Why is the FBI outside?</p>
        <p class="toolbar">
            <a href="https://www.reddit.com/r/megalinks/comments/5xsmfn/_/depa7oa">permalink</a>
        </p>
        
    </div>
</div>
</body>

<script>
function toggle_collapse(comment_div)
{
    var button = comment_div.getElementsByClassName("toggle_hide_button")[0];
    var collapsible = comment_div.getElementsByClassName("collapsible")[0];
    if (collapsible.classList.contains("hidden"))
    {
        collapsible.classList.remove("hidden");
        button.innerText = "[-]";
    }
    else
    {
        collapsible.classList.add("hidden");
        button.innerText = "[+]";
    }
}
</script>
</html>
